# xmcd CD database file
# Copyright (C) 1993-1998 Ti Kan
# 
# Track frame offsets:
# 162
# 16197
# 33307
# 54467
# 69565
# 89910
# 110267
# 128310
# 147327
# 161485
# 175500
# 
# Disc length: 2652 seconds
# 
# Revision: 0
# Processed by: cddbd v1.4b41PL1 Copyright (c) Steve Scherf et al.
# Submitted via: SuperSonic v3.01
# 
DISCID=870a5a0b
DTITLE=Tom Ovans - Industrial Days
DYEAR=1900
DGENRE=
TTITLE0=Wild Wild Blowing
TTITLE1=Little Child
TTITLE2=Sad Streets
TTITLE3=Gonna Be Missing You
TTITLE4=Hallelujah Child
TTITLE5=Lay Down By My Side
TTITLE6=True Love Travels A Rocky Road
TTITLE7=Those Days Have Passed Us By
TTITLE8=Early One Morning
TTITLE9=Why Do You Treat Love This Way
TTITLE10=Crazy
EXTD=
EXTT0=
EXTT1=
EXTT2=
EXTT3=
EXTT4=
EXTT5=
EXTT6=
EXTT7=
EXTT8=
EXTT9=
EXTT10=
PLAYORDER=
